# xmcd
#
# Track frame offsets: 
#        150
#        22508
#        44860
#        64247
#        84373
#        105346
#        126136
#        148647
#        172318
#        192418
#
# Disc length: 2835 seconds
#
# Revision: 0
# Processed by: cddbd v1.4PL0 Copyright (c) Steve Scherf et al.
# Submitted via: ExactAudioCopy v0.95a3
#
DISCID=880b110a
DTITLE=Barbara Carr - What a Woman Wants
DYEAR=1999
DGENRE=Blues
TTITLE0=If I Don't Holler
TTITLE1=A Woman Always Gets Her Way
TTITLE2=Got My Name on Your Thang
TTITLE3=Rainbow
TTITLE4=Your Kind of Lovin' Ain't Good Enough
TTITLE5=That Old Booty Green
TTITLE6=Let a Real Woman Try
TTITLE7=Blues in the Bed
TTITLE8=Good Woman Go Bad
TTITLE9=The Man Knows How to Love
EXTD=
EXTT0=
EXTT1=
EXTT2=
EXTT3=
EXTT4=
EXTT5=
EXTT6=
EXTT7=
EXTT8=
EXTT9=
PLAYORDER=
